# xmcd
#
# Track frame offsets:
#	150
#	10203
#	22999
#	38727
#	52194
#	61867
#	76708
#	92322
#	104903
#	112862
#	124318
#	131893
#	143292
#
# Disc length: 2060 seconds
#
# Revision: 1
# Processed by: cddbd v1.5.2PL0 Copyright (c) Steve Scherf et al.
# Submitted via: audiograbber 1.83.01
#
DISCID=a0080a0d
DTITLE=WERNER REISCHL - Sing mit mir ein Halleluja
DYEAR=1984
DGENRE=Sakral
TTITLE0=Sing mit mir ein Halleluja
TTITLE1=Herr, deine Liebe ist wie Gras und Ufer
TTITLE2=Warum denn bauen wir nicht Bruecken
TTITLE3=Ich zieh meine dunkle Straﬂe
TTITLE4=Lass die kleinen Dinge
TTITLE5=Du groﬂer Gott (Wie groﬂ bist du)
TTITLE6=Von guten Maechten wunderbar geborgen
TTITLE7=Friede soll mit uns sein
TTITLE8=Unser Leben sei ein Fest
TTITLE9=Vater unser
TTITLE10=Gegruesset seist du Maria
TTITLE11=Gestern Abend beim Schlafengehn
TTITLE12=Diesen Tag, Herr...
EXTD=
EXTT0=
EXTT1=
EXTT2=
EXTT3=
EXTT4=
EXTT5=
EXTT6=
EXTT7=
EXTT8=
EXTT9=
EXTT10=
EXTT11=
EXTT12=
PLAYORDER=
